<svg width="28" height="18" viewBox="0 0 28 18" fill="none" xmlns="http://www.w3.org/2000/svg">
<g id="Logo">
<path id="XMLID_330_" d="M10.9544 9.00024C10.9544 6.4449 12.1557 4.17694 13.9991 2.71157C12.6424 1.6449 10.9311 1.00024 9.06445 1.00024C4.64245 1.00024 1.06445 4.57824 1.06445 9.00024C1.06445 13.4223 4.64245 17.0002 9.06445 17.0002C10.9311 17.0002 12.6424 16.3556 13.9991 15.2889C12.1531 13.8443 10.9544 11.5556 10.9544 9.00024Z" stroke="white" stroke-width="2"/>
<path id="path22" d="M26.9346 9.00024C26.9346 13.4223 23.3566 17.0002 18.9346 17.0002C17.068 17.0002 15.3566 16.3556 14 15.2889C15.8667 13.821 17.0447 11.5556 17.0447 9.00024C17.0447 6.4449 15.8434 4.17694 14 2.71157C15.354 1.6449 17.0654 1.00024 18.932 1.00024C23.3566 1.00024 26.9346 4.60154 26.9346 9.00024Z" stroke="white" stroke-width="2"/>
</g>
</svg>
