<svg width="80" height="24" viewBox="0 0 80 24" fill="none" xmlns="http://www.w3.org/2000/svg">
<g id="Company Logo">
<path id="visa-logo" fill-rule="evenodd" clip-rule="evenodd" d="M39.4803 4.00024L36.1737 19.0002H32.2058L35.5124 4.00024H39.4803ZM58.1862 14.0002L60.8182 8.00024L62.3431 14.0002H58.1862ZM66.4999 19.0002H62.7134L62.2188 16.7624H57.0848L56.2491 19.0002H51.9509L58.0741 5.10295C58.3564 4.44174 59.0292 4.00677 59.7797 4.00024H63.191L66.4999 19.0002ZM51.2073 14.8235C51.2179 12.261 49.0428 11.1542 47.3549 10.2952C46.2864 9.7515 45.413 9.30709 45.413 8.65559C45.413 8.10098 45.9665 7.51276 47.1427 7.36151C48.5424 7.22694 49.9535 7.46514 51.2246 8.05057L51.951 4.6893C50.7119 4.23781 49.4 4.00448 48.0767 4.00024C43.9947 4.00024 41.1582 6.11784 41.1582 9.14298C41.1582 11.3782 43.2164 12.6219 44.7731 13.3614C46.3297 14.1008 46.9351 14.6218 46.9178 15.2941C46.9178 16.3361 45.6379 16.8067 44.4444 16.8235C42.9723 16.8419 41.5197 16.4948 40.2242 15.8151L39.4804 19.1763C40.9463 19.7324 42.5077 20.0119 44.0812 19.9999C48.4226 19.9999 51.2765 17.9159 51.2938 14.6891L51.2073 14.8235ZM27.1666 19.0002L34.2843 4.00027H29.5147L24.947 14.2002L23.1125 5.52459C22.9501 4.643 22.0867 3.99663 21.0763 4.00027H13.6101L13.5 4.43811C14.9975 4.69711 16.4521 5.12209 17.8293 5.70297C18.4159 5.94676 18.8134 6.44609 18.8749 7.01648L22.3787 19.0002H27.1666Z" fill="white"/>
</g>
</svg>
